<svg xmlns="http://www.w3.org/2000/svg" width="194.55" height="30.08" viewBox="0 0 194.55 30.08">
  <g id="logo_pancakeswap" transform="translate(0 0)">
    <path id="Path_436" data-name="Path 436" d="M141.1,361.182a1.333,1.333,0,0,1-.96-.28,1.3,1.3,0,0,1-.259-.89V346.461a1.038,1.038,0,0,1,1.217-1.193h5.733a7.087,7.087,0,0,1,4.822,1.383,6.234,6.234,0,0,1,0,8.213,7.02,7.02,0,0,1-4.822,1.359H144.6v3.79a1.217,1.217,0,0,1-.28.89,1.331,1.331,0,0,1-.96.28Zm5.359-8.355a1.992,1.992,0,0,0,1.473-.519,2.515,2.515,0,0,0,0-3.113,1.992,1.992,0,0,0-1.473-.519h-1.85v4.15Z" transform="translate(-103.583 -337.932)" fill="#fff"/>
    <path id="Path_437" data-name="Path 437" d="M198.775,373.913a4.642,4.642,0,0,1-3.533-1.406,5.47,5.47,0,0,1-1.3-4,6.545,6.545,0,0,1,.887-3.442,6.034,6.034,0,0,1,2.552-2.27,8.534,8.534,0,0,1,3.813-.82,11.2,11.2,0,0,1,3.136.407,9.155,9.155,0,0,1,2.529,1.1v9.362a.758.758,0,0,1-.166.584,1.064,1.064,0,0,1-.654.14h-2.386a.911.911,0,0,1-.4-.07.706.706,0,0,1-.233-.28l-.3-.7a3.946,3.946,0,0,1-1.639,1.053A6.566,6.566,0,0,1,198.775,373.913Zm1.756-3.183a2.116,2.116,0,0,0,1.427-.446,1.58,1.58,0,0,0,.519-1.263v-3.642a2.594,2.594,0,0,0-1.126-.213,2.5,2.5,0,0,0-1.987.866,3.67,3.67,0,0,0-.737,2.433q0,2.272,1.9,2.272Z" transform="translate(-143.634 -350.318)" fill="#fff"/>
    <path id="Path_438" data-name="Path 438" d="M252.693,373.571a1.333,1.333,0,0,1-.96-.28,1.217,1.217,0,0,1-.28-.89v-9.338a.812.812,0,0,1,.137-.56.949.949,0,0,1,.656-.163h2.41a.779.779,0,0,1,.42.093.314.314,0,0,1,.189.28l.117.7a4.48,4.48,0,0,1,1.707-1.038,6.869,6.869,0,0,1,2.389-.4,4.34,4.34,0,0,1,3.064,1.077,4.063,4.063,0,0,1,1.17,3.136v6.2a1.216,1.216,0,0,1-.28.89,1.242,1.242,0,0,1-.936.28h-2.267a1.427,1.427,0,0,1-.983-.28,1.216,1.216,0,0,1-.28-.89v-5.888a1.385,1.385,0,0,0-.3-1.006,1.3,1.3,0,0,0-.96-.306,1.629,1.629,0,0,0-1.123.376,1.346,1.346,0,0,0-.4,1.038v5.8a1.217,1.217,0,0,1-.28.89,1.242,1.242,0,0,1-.936.28Z" transform="translate(-186.221 -350.321)" fill="#fff"/>
    <path id="Path_439" data-name="Path 439" d="M311.119,373.925a7.541,7.541,0,0,1-5.053-1.523,5.511,5.511,0,0,1-1.779-4.423,5.94,5.94,0,0,1,.82-3.134,5.461,5.461,0,0,1,2.363-2.106,8.519,8.519,0,0,1,3.7-.747,10.251,10.251,0,0,1,2.713.306,5.966,5.966,0,0,1,2,.939.485.485,0,0,1,.259.42,1.038,1.038,0,0,1-.187.49l-.96,1.663q-.179.332-.41.332a1.038,1.038,0,0,1-.446-.187,5.526,5.526,0,0,0-1.193-.584,4.116,4.116,0,0,0-1.357-.189,2.529,2.529,0,0,0-1.9.75,2.9,2.9,0,0,0-.7,2.06,2.789,2.789,0,0,0,.726,2.06,2.747,2.747,0,0,0,1.99.7,4.066,4.066,0,0,0,1.357-.213,6.739,6.739,0,0,0,1.24-.584,1.18,1.18,0,0,1,.47-.187q.21,0,.374.327l1.053,1.8a.905.905,0,0,1,.117.374.519.519,0,0,1-.28.4,7.344,7.344,0,0,1-2.153.936A10.18,10.18,0,0,1,311.119,373.925Z" transform="translate(-225.354 -350.33)" fill="#fff"/>
    <path id="Path_440" data-name="Path 440" d="M359.7,373.928a4.637,4.637,0,0,1-3.533-1.406,5.535,5.535,0,0,1-1.313-4,6.547,6.547,0,0,1,.89-3.442,6.026,6.026,0,0,1,2.55-2.27,8.561,8.561,0,0,1,3.816-.815,11.2,11.2,0,0,1,3.136.4,9.1,9.1,0,0,1,2.527,1.1v9.362a.778.778,0,0,1-.163.584,1.063,1.063,0,0,1-.654.14h-2.389a.906.906,0,0,1-.4-.07.706.706,0,0,1-.233-.28l-.3-.7a3.945,3.945,0,0,1-1.639,1.053,6.577,6.577,0,0,1-2.293.348Zm1.754-3.183a2.124,2.124,0,0,0,1.429-.446,1.577,1.577,0,0,0,.519-1.263v-3.642a2.594,2.594,0,0,0-1.123-.213,2.506,2.506,0,0,0-1.99.866,3.7,3.7,0,0,0-.729,2.433q0,2.272,1.894,2.272Z" transform="translate(-262.805 -350.332)" fill="#fff"/>
    <path id="Path_441" data-name="Path 441" d="M425.075,360.292a.633.633,0,0,1,.163.423.475.475,0,0,1-.14.35.573.573,0,0,1-.376.117H421.1a1.951,1.951,0,0,1-.493-.047,1.064,1.064,0,0,1-.3-.259l-3.183-4.329v3.463a1.217,1.217,0,0,1-.28.89,1.333,1.333,0,0,1-.96.28h-2.27a1.331,1.331,0,0,1-.96-.28,1.3,1.3,0,0,1-.259-.89V346.461a1.038,1.038,0,0,1,1.217-1.193h2.27a1.256,1.256,0,0,1,.96.306,1.214,1.214,0,0,1,.28.887V354.3l3.089-4.026a.778.778,0,0,1,.3-.259,1.323,1.323,0,0,1,.493-.07h3.632a.438.438,0,0,1,.353.14.4.4,0,0,1,.14.327.633.633,0,0,1-.163.423l-4,4.586Z" transform="translate(-305.404 -337.932)" fill="#fff"/>
    <path id="Path_442" data-name="Path 442" d="M471.181,373.932a8.931,8.931,0,0,1-3.51-.656,5.427,5.427,0,0,1-2.41-1.966,5.569,5.569,0,0,1-.89-3.206,5.9,5.9,0,0,1,1.684-4.54A6.848,6.848,0,0,1,470.9,362a6.391,6.391,0,0,1,4.669,1.556,5.793,5.793,0,0,1,1.616,4.236c0,.778-.345,1.17-1.038,1.17h-7.331a1.78,1.78,0,0,0,.75,1.543,4.075,4.075,0,0,0,2.316.54,6.484,6.484,0,0,0,1.59-.163,6.745,6.745,0,0,0,1.313-.54,1.28,1.28,0,0,1,.374-.117q.21,0,.35.28l.8,1.5a.9.9,0,0,1,.117.35.519.519,0,0,1-.28.4,6.592,6.592,0,0,1-2.176.913,12.484,12.484,0,0,1-2.786.267Zm1.8-7.3a1.816,1.816,0,0,0-.519-1.383,2.633,2.633,0,0,0-3.1.029,1.746,1.746,0,0,0-.54,1.359Z" transform="translate(-343.911 -350.337)" fill="#fff"/>
    <path id="Path_443" data-name="Path 443" d="M524.9,360.6a16.808,16.808,0,0,1-3.72-.4,8.319,8.319,0,0,1-2.833-1.157q-.4-.259-.4-.537a.719.719,0,0,1,.137-.4l1.147-1.816c.127-.189.259-.283.376-.283a1.007,1.007,0,0,1,.4.163,8.467,8.467,0,0,0,1.964.8,8.168,8.168,0,0,0,2.176.3,3.1,3.1,0,0,0,1.616-.327,1.139,1.139,0,0,0,.537-1.053,1.261,1.261,0,0,0-.584-1.1,11.285,11.285,0,0,0-2.13-1.006,12.964,12.964,0,0,1-3.7-1.99,3.639,3.639,0,0,1-1.3-3.043,4.111,4.111,0,0,1,1.663-3.533,7.3,7.3,0,0,1,4.41-1.222,13.28,13.28,0,0,1,3.276.35,6.485,6.485,0,0,1,2.335,1.038c.259.2.4.392.4.563a.677.677,0,0,1-.14.374l-1.147,1.816q-.21.28-.374.28a.991.991,0,0,1-.4-.163,5.741,5.741,0,0,0-3.224-.885,3,3,0,0,0-1.556.327,1.167,1.167,0,0,0-.54,1.077,1.237,1.237,0,0,0,.283.843,2.66,2.66,0,0,0,.747.586c.329.156.828.358,1.5.607l.444.166a15.72,15.72,0,0,1,2.716,1.31,4.184,4.184,0,0,1,1.52,1.52,4.41,4.41,0,0,1,.519,2.246,4.016,4.016,0,0,1-1.556,3.323A7.245,7.245,0,0,1,524.9,360.6Z" transform="translate(-383.594 -337)" fill="#fff"/>
    <path id="Path_444" data-name="Path 444" d="M576.456,374.578a1.038,1.038,0,0,1-.54-.117.753.753,0,0,1-.28-.467l-3.019-10.117a.743.743,0,0,1-.047-.21q0-.327.467-.327h3.089a.7.7,0,0,1,.446.117.485.485,0,0,1,.187.327l1.263,5.313,1.59-4.283a.991.991,0,0,1,.236-.374.734.734,0,0,1,.467-.117h1.473a.635.635,0,0,1,.446.117.816.816,0,0,1,.259.374l1.556,4.283,1.3-5.312a.646.646,0,0,1,.187-.327.594.594,0,0,1,.42-.117h3.113c.314,0,.469.109.469.327a.741.741,0,0,1-.047.21l-3.043,10.117a.752.752,0,0,1-.28.467.9.9,0,0,1-.519.117h-2.293a.843.843,0,0,1-.49-.117,1.089,1.089,0,0,1-.283-.467l-1.543-4.236-1.556,4.236a.855.855,0,0,1-.28.467.843.843,0,0,1-.49.117Z" transform="translate(-424.045 -351.328)" fill="#fff"/>
    <path id="Path_445" data-name="Path 445" d="M647.011,373.927a4.642,4.642,0,0,1-3.533-1.406,5.52,5.52,0,0,1-1.313-4,6.547,6.547,0,0,1,.89-3.442,6.026,6.026,0,0,1,2.55-2.27,8.545,8.545,0,0,1,3.816-.815,11.2,11.2,0,0,1,3.136.4,9.1,9.1,0,0,1,2.527,1.1v9.362a.778.778,0,0,1-.163.584,1.069,1.069,0,0,1-.656.14h-2.386a.905.905,0,0,1-.4-.07.705.705,0,0,1-.233-.28l-.306-.7a3.938,3.938,0,0,1-1.637,1.053A6.576,6.576,0,0,1,647.011,373.927Zm1.754-3.183a2.124,2.124,0,0,0,1.429-.446,1.577,1.577,0,0,0,.519-1.263v-3.642a2.593,2.593,0,0,0-1.123-.213,2.506,2.506,0,0,0-1.99.866,3.706,3.706,0,0,0-.726,2.433q-.005,2.272,1.891,2.272Z" transform="translate(-475.586 -350.332)" fill="#fff"/>
    <path id="Path_446" data-name="Path 446" d="M700.947,378.324a1.318,1.318,0,0,1-.96-.283,1.3,1.3,0,0,1-.259-.887V363.743a9.239,9.239,0,0,1,2.643-1.24,11.223,11.223,0,0,1,3.323-.493q7.071,0,7.071,5.992a6.113,6.113,0,0,1-1.5,4.329,5.48,5.48,0,0,1-4.239,1.608,5.86,5.86,0,0,1-1.5-.189,3.689,3.689,0,0,1-1.17-.519v3.909a1.214,1.214,0,0,1-.28.887,1.326,1.326,0,0,1-.96.283Zm5.079-7.523a1.671,1.671,0,0,0,1.5-.75,3.671,3.671,0,0,0,.519-2.06,2.976,2.976,0,0,0-.607-2.13,2.371,2.371,0,0,0-1.816-.633,3.1,3.1,0,0,0-1.263.213v3.72a1.588,1.588,0,0,0,.446,1.217,1.73,1.73,0,0,0,1.219.41Z" transform="translate(-518.215 -350.344)" fill="#fff"/>
    <path id="Path_447" data-name="Path 447" d="M5.338,321.741a3.971,3.971,0,1,1,7.875-.729v4.895q.82-.06,1.671-.057t1.606.052v-4.89a3.971,3.971,0,1,1,7.875.729l-1.077,5.754c3.689,1.611,6.485,4.41,6.485,7.922v2.127c0,2.89-1.912,5.31-4.584,6.942a20.139,20.139,0,0,1-10.306,2.635,20.027,20.027,0,0,1-10.3-2.625C1.888,342.848,0,340.433,0,337.543v-2.127c0-3.5,2.76-6.283,6.418-7.9Zm16.573,6.511,1.258-6.744A2.757,2.757,0,1,0,17.7,321v6.226c-.4-.052-.8-.093-1.214-.122-.519-.039-1.064-.057-1.606-.057s-1.123.021-1.671.062c-.412.031-.817.073-1.217.125v-6.226a2.757,2.757,0,1,0-5.466.506l1.263,6.744c-3.945,1.481-6.581,4.13-6.581,7.157v2.127c0,4.612,6.122,8.353,13.67,8.353s13.668-3.741,13.668-8.353v-2.127C28.552,332.373,25.891,329.712,21.912,328.252Z" transform="translate(0 -317.04)" fill="#633001"/>
    <path id="Path_448" data-name="Path 448" d="M32.018,390.007c0,4.612-6.119,8.353-13.668,8.353s-13.67-3.741-13.67-8.353V387.88H32.018Z" transform="translate(-3.466 -369.504)" fill="#fedc90"/>
    <path id="Path_449" data-name="Path 449" d="M10,324.946a2.757,2.757,0,1,1,5.466-.506v6.226a22.514,22.514,0,0,1,5.707,0V324.44a2.757,2.757,0,1,1,5.466.506l-1.258,6.744c3.979,1.46,6.641,4.122,6.641,7.165,0,4.612-6.119,8.353-13.668,8.353s-13.67-3.741-13.67-8.353c0-3.027,2.636-5.678,6.581-7.144Z" transform="translate(-3.466 -320.469)" fill="#d1884f"/>
    <path id="Path_450" data-name="Path 450" d="M34.045,379.038c0,1.258-.68,2.278-1.517,2.278S31,380.3,31,379.038s.68-2.278,1.52-2.278S34.045,377.779,34.045,379.038Z" transform="translate(-22.959 -361.268)" fill="#633001"/>
    <path id="Path_451" data-name="Path 451" d="M74.468,379.038c0,1.258-.68,2.278-1.52,2.278s-1.517-1.019-1.517-2.278.68-2.278,1.517-2.278S74.468,377.779,74.468,379.038Z" transform="translate(-52.901 -361.268)" fill="#633001"/>
  </g>
</svg>
